<svg xmlns="http://www.w3.org/2000/svg" version="1.1" xmlns:xlink="http://www.w3.org/1999/xlink" width="512" height="512" x="0" y="0" viewBox="0 0 512 512" style="enable-background:new 0 0 512 512" xml:space="preserve" class=""><g><g fill-rule="evenodd" clip-rule="evenodd"><path fill="#a79ba7" d="M247.393 47.978a164.673 164.673 0 0 1 48.221 19.991l31.335-13.917 36.932 36.931-13.913 31.325a164.688 164.688 0 0 1 19.995 48.235l31.969 12.305v52.228l-31.977 12.308a164.706 164.706 0 0 1-19.991 48.222l13.917 31.335-36.931 36.932-31.325-13.913a164.655 164.655 0 0 1-48.234 19.995l-12.305 31.969h-52.228l-12.308-31.977a164.662 164.662 0 0 1-48.221-19.991l-31.335 13.917-36.932-36.933 13.913-31.325a164.677 164.677 0 0 1-19.995-48.234l-31.969-12.305v-52.228l31.973-12.307a164.663 164.663 0 0 1 19.993-48.225L54.062 90.984l36.931-36.932 31.335 13.917a164.673 164.673 0 0 1 48.221-19.991l12.309-31.976h52.227z" opacity="1" data-original="#a79ba7" class=""></path><path fill="#837683" d="m122.328 349.954-31.335 13.917-4.825-4.825 29.378-13.048a166.09 166.09 0 0 0 6.782 3.956zM247.393 47.978a164.673 164.673 0 0 1 48.221 19.991l-8.907 3.956c-14.912-9.182-37.966-19.892-55.003-23.947l-12.308-31.976h15.688zm48.232 301.98a164.655 164.655 0 0 1-48.234 19.995l-12.305 31.969h-15.688l12.305-31.969c17.041-4.054 40.1-14.765 55.015-23.951zM86.168 58.877l4.825-4.825 31.335 13.917a165.38 165.38 0 0 0-6.781 3.956zm229.918 0 10.863-4.825 36.932 36.931-13.913 31.325a164.688 164.688 0 0 1 19.995 48.235l31.969 12.305v52.228l-31.977 12.308a164.706 164.706 0 0 1-19.991 48.222l13.917 31.335-36.931 36.932-10.863-4.825 32.106-32.107-13.917-31.335a164.706 164.706 0 0 0 19.991-48.222l31.976-12.308v-52.228l-31.969-12.305a164.66 164.66 0 0 0-19.995-48.235l13.913-31.325z" opacity="1" data-original="#837683" class=""></path><circle cx="208.971" cy="208.962" r="120.6" fill="#eceff1" transform="rotate(-45 208.948 209.015)" opacity="1" data-original="#eceff1"></circle><path fill="#d1d1d6" d="M208.971 88.362c-66.61 0-120.599 53.989-120.599 120.601 0 66.61 53.989 120.599 120.599 120.599 3.229 0 6.428-.13 9.593-.38-62.124-4.888-111.007-56.839-111.007-120.219 0-63.382 48.883-115.333 111.007-120.221a121.8 121.8 0 0 0-9.593-.38z" opacity="1" data-original="#d1d1d6"></path><path fill="#f2d1a5" d="m212.393 120.524 71.458 41.256c2.176 1.256 3.421 3.413 3.421 5.926v82.512c0 2.512-1.245 4.669-3.421 5.926L212.393 297.4c-2.176 1.256-4.666 1.256-6.842 0l-71.458-41.256c-2.176-1.256-3.421-3.413-3.421-5.926v-82.512c0-2.512 1.246-4.669 3.421-5.926l71.458-41.256c2.175-1.256 4.666-1.256 6.842 0z" opacity="1" data-original="#f2d1a5"></path><path fill="#e3a76f" d="m212.393 120.524 71.458 41.256c1.088.628 1.943 1.481 2.526 2.492l-77.405 44.69-77.405-44.69c.583-1.01 1.439-1.863 2.526-2.492l71.458-41.256c2.175-1.256 4.666-1.256 6.842 0z" opacity="1" data-original="#e3a76f"></path><path fill="#ecba78" d="M286.377 164.272c.583 1.01.895 2.178.895 3.434v82.512c0 2.512-1.245 4.669-3.421 5.925l-71.458 41.256c-1.088.628-2.254.942-3.421.942v-89.379z" opacity="1" data-original="#ecba78"></path><path fill="#c48958" d="m158.468 179.804 22.707 13.11 78.3-45.207-22.707-13.11z" opacity="1" data-original="#c48958"></path><path fill="#e3a76f" d="m176.044 225.553-14.154-8.172c-2.176-1.256-3.421-3.413-3.421-5.925v-31.653l22.707 13.11v29.677a3.343 3.343 0 0 1-1.71 2.963c-1.089.628-2.334.628-3.422 0z" opacity="1" data-original="#e3a76f"></path><circle cx="398.423" cy="297.425" r="97.59" fill="#ffe177" transform="rotate(-45 398.398 297.52)" opacity="1" data-original="#ffe177"></circle><path fill="#ffd064" d="M398.423 199.835c53.897 0 97.59 43.693 97.59 97.59s-43.693 97.59-97.59 97.59c-2.21 0-4.402-.081-6.575-.225 50.831-3.383 91.015-45.678 91.015-97.365s-40.185-93.982-91.015-97.365a98.696 98.696 0 0 1 6.575-.225z" opacity="1" data-original="#ffd064"></path><circle cx="398.423" cy="297.425" r="70.52" fill="#ffc338" opacity="1" data-original="#ffc338"></circle><path fill="#f5b829" d="M398.423 226.905c-38.947 0-70.52 31.573-70.52 70.52s31.573 70.52 70.52 70.52a71.37 71.37 0 0 0 5.688-.229c-36.287-2.896-64.833-33.259-64.833-70.291s28.546-67.395 64.833-70.291a71.39 71.39 0 0 0-5.688-.229z" opacity="1" data-original="#f5b829"></path><path d="m339.54 458.851-15.288 19.579a7.989 7.989 0 0 1-6.312 3.08 7.961 7.961 0 0 1-6.298-3.08l-15.293-19.579c-2.72-3.48-2.099-8.511 1.379-11.221a7.985 7.985 0 0 1 11.231 1.381l.984 1.26v-51.68a8 8 0 1 1 15.999 0v51.68l.988-1.26c2.72-3.49 7.752-4.111 11.231-1.381 3.478 2.71 4.1 7.741 1.379 11.221zm160.942 0L485.19 478.43a7.969 7.969 0 0 1-6.298 3.08 7.989 7.989 0 0 1-6.312-3.08l-15.288-19.579c-2.72-3.48-2.104-8.511 1.379-11.221 3.478-2.73 8.51-2.109 11.231 1.381l.988 1.26v-51.68c0-4.42 3.582-8 8.002-8s7.997 3.58 7.997 8v51.68l.979-1.26c2.725-3.49 7.752-4.111 11.231-1.381 3.483 2.71 4.099 7.741 1.383 11.221zm-80.473 22.499-15.288 19.579a7.996 7.996 0 0 1-6.298 3.071 8.001 8.001 0 0 1-6.312-3.071l-15.293-19.579a8.003 8.003 0 0 1 1.384-11.23 7.998 7.998 0 0 1 11.226 1.381l.993 1.259v-51.68c0-4.42 3.577-8 8.002-8 4.41 0 7.997 3.58 7.997 8v51.68l.979-1.259c2.721-3.481 7.752-4.1 11.231-1.381a7.999 7.999 0 0 1 1.379 11.23zm40.931-183.919c0 34.471-28.048 62.521-62.517 62.521-34.483 0-62.531-28.05-62.531-62.521 0-34.48 28.049-62.53 62.531-62.53 34.469 0 62.517 28.05 62.517 62.53zm-141.046 0c0 43.29 35.226 78.52 78.53 78.52 43.289 0 78.52-35.23 78.52-78.52 0-43.299-35.231-78.53-78.52-78.53-43.304 0-78.53 35.23-78.53 78.53zm78.529-52.631a7.996 7.996 0 0 0-8.002 8v3.001c-12.742 3.25-20.851 13.37-20.273 25.43.443 8.919 5.484 20.3 27.032 23.839 14.902 2.44 15.528 7.621 15.792 9.831.24 1.94-.15 3.368-1.252 4.639-2.24 2.591-7.286 4.411-12.567 4.54-6.072.171-13.772-2.289-15.603-9.62-1.059-4.29-5.399-6.889-9.686-5.83a8.001 8.001 0 0 0-5.832 9.7c2.65 10.64 11.202 18.34 22.391 20.859v2.861c0 4.42 3.577 8 8.002 8 4.41 0 7.997-3.58 7.997-8v-2.719c7.159-1.401 13.401-4.69 17.401-9.32 4.081-4.711 5.818-10.611 5.041-17.041-1.563-12.809-11.344-20.78-29.079-23.691-13.32-2.189-13.56-7.008-13.65-8.828-.334-6.86 7.197-8.922 8.708-9.261 6.199-1.408 13.852.491 16.959 7.911 1.709 4.08 6.411 5.988 10.473 4.278 4.081-1.71 5.987-6.4 4.279-10.469-4.109-9.811-11.89-15.17-20.131-17.18v-2.93c-.003-4.42-3.59-8-8-8zm-181.46 40.72v-71.94l62.3-35.969v71.94zm-78.294-107.909 11.791 6.81v30.988a8.015 8.015 0 0 0 4.001 6.932l22.711 13.109c1.238.71 2.622 1.07 4.001 1.07s2.758-.361 4.001-1.07a8.02 8.02 0 0 0 3.996-6.93v-21.75l11.791 6.81v71.94l-62.291-35.969v-71.94zm70.293-49.821 11.8 6.81-62.3 35.971-11.791-6.81zm-42.499 65.87v17.131l6.707 3.87v-17.13zm77.01-45.949-6.712-3.871-62.3 35.96 6.712 3.88zm-34.511 52.019 62.3-35.969-11.791-6.811-62.3 35.971zm82.299-42.899-78.299-45.21a7.994 7.994 0 0 0-8.002 0l-78.29 45.21a7.99 7.99 0 0 0-4.001 6.93v90.409a7.991 7.991 0 0 0 4.001 6.931l78.29 45.199c1.238.72 2.622 1.07 4.001 1.07s2.768-.349 4.001-1.07l78.299-45.199a7.991 7.991 0 0 0 4.001-6.931v-90.409a7.987 7.987 0 0 0-4.001-6.93zm.161 186.319a8.002 8.002 0 0 1 7.451-.5l5.3 2.361a104.882 104.882 0 0 1-10.981-38.859c-23.219 20.15-52.98 31.409-84.23 31.409-70.909 0-128.601-57.691-128.601-128.601 0-70.909 57.692-128.599 128.601-128.599s128.597 57.69 128.597 128.599c0 .75-.005 1.5-.019 2.241 16.074-11.381 35.452-18.381 56.379-19.259v-3.6L367.08 178.01a8.022 8.022 0 0 1-4.909-5.61 156.417 156.417 0 0 0-19.021-45.89 8.038 8.038 0 0 1-.499-7.45l11.678-26.3-29.159-29.17-26.321 11.69a7.977 7.977 0 0 1-7.437-.5 156.715 156.715 0 0 0-45.883-19.021 8.012 8.012 0 0 1-5.611-4.909l-10.336-26.847H188.34L178.009 50.85a7.992 7.992 0 0 1-5.62 4.909 156.688 156.688 0 0 0-45.878 19.021 7.983 7.983 0 0 1-7.442.5L92.758 63.59 63.59 92.76l11.692 26.311a7.985 7.985 0 0 1-.499 7.439 156.615 156.615 0 0 0-19.021 45.881 8.018 8.018 0 0 1-4.909 5.619L24 188.341v41.238l26.853 10.341a7.991 7.991 0 0 1 4.9 5.609 156.81 156.81 0 0 0 19.03 45.89 8.017 8.017 0 0 1 .499 7.441L63.59 325.17l29.168 29.161 26.312-11.69a8.029 8.029 0 0 1 7.451.5 156.222 156.222 0 0 0 45.869 19.03 7.98 7.98 0 0 1 5.62 4.9l10.331 26.849h41.242l10.336-26.84a8.02 8.02 0 0 1 5.611-4.909 156.513 156.513 0 0 0 45.892-19.021zM488 297.431c0-49.4-40.187-89.591-89.577-89.591-49.404 0-89.591 40.19-89.591 89.591 0 49.4 40.187 89.579 89.591 89.579 49.389 0 89.577-40.179 89.577-89.579zm-279.038 24.13c-62.079 0-112.603-50.511-112.603-112.601 0-62.08 50.524-112.6 112.603-112.6 62.088 0 112.598 50.52 112.598 112.6 0 5.92-.48 11.841-1.398 17.651-13.918 15.371-23.379 34.84-26.34 56.359-21.43 24.551-52.223 38.591-84.86 38.591zm113.398 49.03c19.223 19.979 46.212 32.419 76.063 32.419 58.219 0 105.575-47.359 105.575-105.579 0-54.34-41.246-99.211-94.077-104.959v-9.62a8.002 8.002 0 0 0-5.121-7.471l-28.1-10.811a172.056 172.056 0 0 0-17.74-42.809l12.228-27.53a8.001 8.001 0 0 0-1.657-8.901L332.602 48.4a8.006 8.006 0 0 0-8.901-1.659l-27.54 12.229a172.678 172.678 0 0 0-42.8-17.739l-10.821-28.1a7.986 7.986 0 0 0-7.46-5.13h-52.228a8.01 8.01 0 0 0-7.47 5.13l-10.812 28.1a172.653 172.653 0 0 0-42.8 17.739L94.23 46.741a8.005 8.005 0 0 0-8.901 1.659l-36.93 36.931a8.003 8.003 0 0 0-1.657 8.901l12.229 27.539a172.327 172.327 0 0 0-17.74 42.799l-28.1 10.811a8.003 8.003 0 0 0-5.13 7.471v52.23a7.992 7.992 0 0 0 5.13 7.46l28.086 10.82a172.588 172.588 0 0 0 17.755 42.81l-12.229 27.53a8 8 0 0 0 1.657 8.899l36.93 36.931a7.98 7.98 0 0 0 8.901 1.649l27.54-12.228a172.745 172.745 0 0 0 42.8 17.75l10.812 28.1a7.995 7.995 0 0 0 7.47 5.118h52.228c3.309 0 6.284-2.03 7.46-5.118l10.821-28.1a172.11 172.11 0 0 0 42.809-17.741z" fill="#000000" opacity="1" data-original="#000000" class=""></path></g></g></svg>