<svg xmlns="http://www.w3.org/2000/svg" version="1.1" xmlns:xlink="http://www.w3.org/1999/xlink" width="50" height="50" x="0" y="0" viewBox="0 0 682.667 682.667" style="enable-background:new 0 0 512 512" xml:space="preserve" class=""><g><defs><clipPath id="a" clipPathUnits="userSpaceOnUse"><path d="M0 512h512V0H0Z" fill="#000000" opacity="1" data-original="#000000"></path></clipPath></defs><g clip-path="url(#a)" transform="matrix(1.33333 0 0 -1.33333 0 682.667)"><path d="M0 0v-67.103c0-12.485 10.121-22.606 22.606-22.606H474.5c12.485 0 22.606 10.121 22.606 22.606V0l-60.149 6.893z" style="fill-opacity:1;fill-rule:nonzero;stroke:none" transform="translate(7.447 187.37)" fill="#e3edf6" data-original="#e3edf6"></path><path d="M0 0h-120c-16.604 0-30.064-13.46-30.064-30.064H30.064C30.064-13.46 16.604 0 0 0" style="fill-opacity:1;fill-rule:nonzero;stroke:none" transform="translate(316 37.624)" fill="#e3edf6" data-original="#e3edf6"></path><path d="M0 0h-25.277C-41.88 0-55.34-13.46-55.34-30.064h25.276C-30.064-13.46-16.604 0 0 0" style="fill-opacity:1;fill-rule:nonzero;stroke:none" transform="translate(221.277 37.624)" fill="#c5d9ec" data-original="#c5d9ec"></path><path d="M225.915 37.624H286V97.66h-60.085z" style="fill-opacity:1;fill-rule:nonzero;stroke:none" fill="#e3edf6" data-original="#e3edf6"></path><path d="M0 0v38.063h-21.973v-60.036h60.085V0Z" style="fill-opacity:1;fill-rule:nonzero;stroke:none" transform="translate(247.888 59.598)" fill="#c5d9ec" data-original="#c5d9ec"></path><path d="M0 0h-451.894C-464.379 0-474.5-10.121-474.5-22.606v-232.677H22.606v232.677C22.606-10.121 12.485 0 0 0" style="fill-opacity:1;fill-rule:nonzero;stroke:none" transform="translate(481.947 442.652)" fill="#c6fff6" data-original="#c6fff6" class=""></path><path d="M0 0v210.603c0 12.485 10.121 22.606 22.606 22.606H-.862c-12.485 0-22.606-10.121-22.606-22.606V-22.074h497.106V0Z" style="fill-opacity:1;fill-rule:nonzero;stroke:none" transform="translate(30.915 210.444)" fill="#a4fef1" data-original="#a4fef1"></path><path d="M0 0a4.2 4.2 0 0 0-4.2 4.2v61.86h-23.649V-1.042c0-12.486 10.121-22.607 22.606-22.607h451.894c12.485 0 22.606 10.121 22.606 22.607V0Z" style="fill-opacity:1;fill-rule:nonzero;stroke:none" transform="translate(35.296 121.309)" fill="#c5d9ec" data-original="#c5d9ec"></path><path d="M0 0c0 8.237-6.678 14.915-14.915 14.915-8.237 0-14.915-6.678-14.915-14.915 0-8.237 6.678-14.915 14.915-14.915C-6.678-14.915 0-8.237 0 0" style="fill-opacity:1;fill-rule:nonzero;stroke:none" transform="translate(270.915 142.88)" fill="#2170a9" data-original="#2170a9"></path><path d="M61.17 188.213H151v105.361H61.17Z" style="fill-opacity:1;fill-rule:nonzero;stroke:none" fill="#f696c3" data-original="#f696c3"></path><path d="M0 0v82.856h-22.505V-22.505h89.829V0Z" style="fill-opacity:1;fill-rule:nonzero;stroke:none" transform="translate(83.675 210.718)" fill="#f072ae" data-original="#f072ae"></path><path d="M211.085 188.213h89.83v180.356h-89.83z" style="fill-opacity:1;fill-rule:nonzero;stroke:none" fill="#feef8f" data-original="#feef8f"></path><path d="M0 0v157.894h-22.463V-22.462h89.83V0z" style="fill-opacity:1;fill-rule:nonzero;stroke:none" transform="translate(233.548 210.675)" fill="#fee95d" data-original="#fee95d"></path><path d="M361.085 187.369h89.83v286.205h-89.83z" style="fill-opacity:1;fill-rule:nonzero;stroke:none" fill="#54e072" data-original="#54e072"></path><path d="M0 0v263.992h-22.213V-22.213h89.83V0z" style="fill-opacity:1;fill-rule:nonzero;stroke:none" transform="translate(383.298 209.582)" fill="#00d43d" data-original="#00d43d" class=""></path><path d="M0 0v-15" style="stroke-width:15;stroke-linecap:butt;stroke-linejoin:miter;stroke-miterlimit:10;stroke-dasharray:none;stroke-opacity:1" transform="translate(38.575 166.138)" fill="none" stroke="#ffffff" stroke-width="15" stroke-linecap="butt" stroke-linejoin="miter" stroke-miterlimit="10" stroke-dasharray="none" stroke-opacity="" data-original="#ffffff"></path><path d="M0 0v-15" style="stroke-width:15;stroke-linecap:butt;stroke-linejoin:miter;stroke-miterlimit:10;stroke-dasharray:none;stroke-opacity:1" transform="translate(38.575 391)" fill="none" stroke="#ffffff" stroke-width="15" stroke-linecap="butt" stroke-linejoin="miter" stroke-miterlimit="10" stroke-dasharray="none" stroke-opacity="" data-original="#ffffff"></path><path d="M0 0v-15" style="stroke-width:15;stroke-linecap:butt;stroke-linejoin:miter;stroke-miterlimit:10;stroke-dasharray:none;stroke-opacity:1" transform="translate(68.702 391)" fill="none" stroke="#ffffff" stroke-width="15" stroke-linecap="butt" stroke-linejoin="miter" stroke-miterlimit="10" stroke-dasharray="none" stroke-opacity="" data-original="#ffffff"></path><path d="M0 0v-15" style="stroke-width:15;stroke-linecap:butt;stroke-linejoin:miter;stroke-miterlimit:10;stroke-dasharray:none;stroke-opacity:1" transform="translate(91 271)" fill="none" stroke="#ffffff" stroke-width="15" stroke-linecap="butt" stroke-linejoin="miter" stroke-miterlimit="10" stroke-dasharray="none" stroke-opacity="" data-original="#ffffff"></path><path d="M0 0v-15" style="stroke-width:15;stroke-linecap:butt;stroke-linejoin:miter;stroke-miterlimit:10;stroke-dasharray:none;stroke-opacity:1" transform="translate(241 345.894)" fill="none" stroke="#ffffff" stroke-width="15" stroke-linecap="butt" stroke-linejoin="miter" stroke-miterlimit="10" stroke-dasharray="none" stroke-opacity="" data-original="#ffffff"></path><path d="M0 0v-15" style="stroke-width:15;stroke-linecap:butt;stroke-linejoin:miter;stroke-miterlimit:10;stroke-dasharray:none;stroke-opacity:1" transform="translate(391 450.909)" fill="none" stroke="#ffffff" stroke-width="15" stroke-linecap="butt" stroke-linejoin="miter" stroke-miterlimit="10" stroke-dasharray="none" stroke-opacity="" data-original="#ffffff"></path><path d="M0 0h30.947c12.485 0 22.606-10.121 22.606-22.606v-299.78c0-12.485-10.121-22.606-22.606-22.606h-451.894c-12.485 0-22.606 10.121-22.606 22.606v239.89" style="stroke-width:15;stroke-linecap:butt;stroke-linejoin:miter;stroke-miterlimit:10;stroke-dasharray:none;stroke-opacity:1" transform="translate(451 443.496)" fill="none" stroke="#000000" stroke-width="15" stroke-linecap="butt" stroke-linejoin="miter" stroke-miterlimit="10" stroke-dasharray="none" stroke-opacity="" data-original="#000000" class=""></path><path d="M0 0h45" style="stroke-width:15;stroke-linecap:butt;stroke-linejoin:miter;stroke-miterlimit:10;stroke-dasharray:none;stroke-opacity:1" transform="translate(316 443.496)" fill="none" stroke="#000000" stroke-width="15" stroke-linecap="butt" stroke-linejoin="miter" stroke-miterlimit="10" stroke-dasharray="none" stroke-opacity="" data-original="#000000" class=""></path><path d="M0 0v44.89c0 12.485 10.121 22.606 22.606 22.606h30.947" style="stroke-width:15;stroke-linecap:butt;stroke-linejoin:miter;stroke-miterlimit:10;stroke-dasharray:none;stroke-opacity:1" transform="translate(7.447 376)" fill="none" stroke="#000000" stroke-width="15" stroke-linecap="butt" stroke-linejoin="miter" stroke-miterlimit="10" stroke-dasharray="none" stroke-opacity="" data-original="#000000" class=""></path><path d="M0 0h83.553" style="stroke-width:15;stroke-linecap:butt;stroke-linejoin:miter;stroke-miterlimit:10;stroke-dasharray:none;stroke-opacity:1" transform="translate(421 188.213)" fill="none" stroke="#000000" stroke-width="15" stroke-linecap="butt" stroke-linejoin="miter" stroke-miterlimit="10" stroke-dasharray="none" stroke-opacity="" data-original="#000000" class=""></path><path d="M0 0h398.553" style="stroke-width:15;stroke-linecap:butt;stroke-linejoin:miter;stroke-miterlimit:10;stroke-dasharray:none;stroke-opacity:1" transform="translate(7.447 188.213)" fill="none" stroke="#000000" stroke-width="15" stroke-linecap="butt" stroke-linejoin="miter" stroke-miterlimit="10" stroke-dasharray="none" stroke-opacity="" data-original="#000000" class=""></path><path d="M0 0c0 8.237-6.678 14.915-14.915 14.915-8.237 0-14.915-6.678-14.915-14.915 0-8.237 6.678-14.915 14.915-14.915C-6.678-14.915 0-8.237 0 0Z" style="stroke-width:15;stroke-linecap:butt;stroke-linejoin:miter;stroke-miterlimit:10;stroke-dasharray:none;stroke-opacity:1" transform="translate(270.915 143.723)" fill="none" stroke="#000000" stroke-width="15" stroke-linecap="butt" stroke-linejoin="miter" stroke-miterlimit="10" stroke-dasharray="none" stroke-opacity="" data-original="#000000" class=""></path><path d="M0 0v-61.037h60.085V0" style="stroke-width:15;stroke-linecap:butt;stroke-linejoin:miter;stroke-miterlimit:10;stroke-dasharray:none;stroke-opacity:1" transform="translate(225.915 98.504)" fill="none" stroke="#000000" stroke-width="15" stroke-linecap="butt" stroke-linejoin="miter" stroke-miterlimit="10" stroke-dasharray="none" stroke-opacity="" data-original="#000000" class=""></path><path d="M0 0h67.606c0 16.604-13.46 30.064-30.063 30.064h-30" style="stroke-width:15;stroke-linecap:butt;stroke-linejoin:miter;stroke-miterlimit:10;stroke-dasharray:none;stroke-opacity:1" transform="translate(278.457 7.404)" fill="none" stroke="#000000" stroke-width="15" stroke-linecap="butt" stroke-linejoin="miter" stroke-miterlimit="10" stroke-dasharray="none" stroke-opacity="" data-original="#000000" class=""></path><path d="M0 0h15" style="stroke-width:15;stroke-linecap:butt;stroke-linejoin:miter;stroke-miterlimit:10;stroke-dasharray:none;stroke-opacity:1" transform="translate(248.457 7.404)" fill="none" stroke="#000000" stroke-width="15" stroke-linecap="butt" stroke-linejoin="miter" stroke-miterlimit="10" stroke-dasharray="none" stroke-opacity="" data-original="#000000" class=""></path><path d="M0 0h-29.915c-16.604 0-30.064-13.46-30.064-30.064H7.543" style="stroke-width:15;stroke-linecap:butt;stroke-linejoin:miter;stroke-miterlimit:10;stroke-dasharray:none;stroke-opacity:1" transform="translate(225.915 37.468)" fill="none" stroke="#000000" stroke-width="15" stroke-linecap="butt" stroke-linejoin="miter" stroke-miterlimit="10" stroke-dasharray="none" stroke-opacity="" data-original="#000000" class=""></path><path d="M0 0v105.362h89.83V0" style="stroke-width:15;stroke-linecap:butt;stroke-linejoin:miter;stroke-miterlimit:10;stroke-dasharray:none;stroke-opacity:1" transform="translate(61.17 188.213)" fill="none" stroke="#000000" stroke-width="15" stroke-linecap="butt" stroke-linejoin="miter" stroke-miterlimit="10" stroke-dasharray="none" stroke-opacity="" data-original="#000000" class=""></path><path d="M0 0v180.17h89.83V0" style="stroke-width:15;stroke-linecap:butt;stroke-linejoin:miter;stroke-miterlimit:10;stroke-dasharray:none;stroke-opacity:1" transform="translate(211.085 188.213)" fill="none" stroke="#000000" stroke-width="15" stroke-linecap="butt" stroke-linejoin="miter" stroke-miterlimit="10" stroke-dasharray="none" stroke-opacity="" data-original="#000000" class=""></path><path d="M0 0v285.362h89.83V0" style="stroke-width:15;stroke-linecap:butt;stroke-linejoin:miter;stroke-miterlimit:10;stroke-dasharray:none;stroke-opacity:1" transform="translate(361.085 188.213)" fill="none" stroke="#000000" stroke-width="15" stroke-linecap="butt" stroke-linejoin="miter" stroke-miterlimit="10" stroke-dasharray="none" stroke-opacity="" data-original="#000000" class=""></path><path d="M0 0v-67.557h37.543" style="stroke-width:15;stroke-linecap:butt;stroke-linejoin:miter;stroke-miterlimit:10;stroke-dasharray:none;stroke-opacity:1" transform="translate(218.457 480.998)" fill="none" stroke="#000000" stroke-width="15" stroke-linecap="butt" stroke-linejoin="miter" stroke-miterlimit="10" stroke-dasharray="none" stroke-opacity="" data-original="#000000" class=""></path><path d="M0 0v44.883c0 12.426 10.074 22.5 22.5 22.5S45 57.309 45 44.883V0" style="stroke-width:15;stroke-linecap:butt;stroke-linejoin:miter;stroke-miterlimit:10;stroke-dasharray:none;stroke-opacity:1" transform="translate(143.5 405.994)" fill="none" stroke="#000000" stroke-width="15" stroke-linecap="butt" stroke-linejoin="miter" stroke-miterlimit="10" stroke-dasharray="none" stroke-opacity="" data-original="#000000" class=""></path><path d="M0 0h39.464" style="stroke-width:15;stroke-linecap:butt;stroke-linejoin:miter;stroke-miterlimit:10;stroke-dasharray:none;stroke-opacity:1" transform="translate(146.268 428.44)" fill="none" stroke="#000000" stroke-width="15" stroke-linecap="butt" stroke-linejoin="miter" stroke-miterlimit="10" stroke-dasharray="none" stroke-opacity="" data-original="#000000" class=""></path><path d="M0 0h-22.461C-30.679 0-37.34-6.661-37.34-14.879c0-8.212 6.653-14.871 14.864-14.879l.247-.007c8.212-.008 14.864-6.667 14.864-14.879v-.217c0-8.191-6.621-14.842-14.812-14.879H-45" style="stroke-width:15;stroke-linecap:butt;stroke-linejoin:miter;stroke-miterlimit:10;stroke-dasharray:none;stroke-opacity:1" transform="translate(121 473.377)" fill="none" stroke="#000000" stroke-width="15" stroke-linecap="butt" stroke-linejoin="miter" stroke-miterlimit="10" stroke-dasharray="none" stroke-opacity="" data-original="#000000" class=""></path><path d="M0 0h-37.511v-59.936H0" style="stroke-width:15;stroke-linecap:butt;stroke-linejoin:miter;stroke-miterlimit:10;stroke-dasharray:none;stroke-opacity:1" transform="translate(316 473.377)" fill="none" stroke="#000000" stroke-width="15" stroke-linecap="butt" stroke-linejoin="miter" stroke-miterlimit="10" stroke-dasharray="none" stroke-opacity="" data-original="#000000" class=""></path><path d="M0 0h22.511" style="stroke-width:15;stroke-linecap:butt;stroke-linejoin:miter;stroke-miterlimit:10;stroke-dasharray:none;stroke-opacity:1" transform="translate(278.49 443.409)" fill="none" stroke="#000000" stroke-width="15" stroke-linecap="butt" stroke-linejoin="miter" stroke-miterlimit="10" stroke-dasharray="none" stroke-opacity="" data-original="#000000" class=""></path><path d="M0 0h-14.872" style="stroke-width:15;stroke-linecap:butt;stroke-linejoin:miter;stroke-miterlimit:10;stroke-dasharray:none;stroke-opacity:1" transform="translate(255.957 443.409)" fill="none" stroke="#000000" stroke-width="15" stroke-linecap="butt" stroke-linejoin="miter" stroke-miterlimit="10" stroke-dasharray="none" stroke-opacity="" data-original="#000000" class=""></path></g></g></svg>