<svg xmlns="http://www.w3.org/2000/svg" version="1.1" xmlns:xlink="http://www.w3.org/1999/xlink" width="50" height="50" x="0" y="0" viewBox="0 0 512 512" style="enable-background:new 0 0 512 512" xml:space="preserve" class=""><g transform="matrix(1,0,0,1,0,0)"><path d="M469.333 0H42.667C19.114.028.028 19.114 0 42.667v426.667C.028 492.886 19.114 511.972 42.667 512h426.667c23.552-.028 42.638-19.114 42.667-42.667V42.667C511.972 19.114 492.886.028 469.333 0zM42.667 17.067h426.667c14.138 0 25.6 11.462 25.6 25.6v25.6H17.067v-25.6c0-14.139 11.461-25.6 25.6-25.6zm-25.6 452.266v-384h25.6v409.6c-14.139 0-25.6-11.461-25.6-25.6zm452.266 25.6h-409.6v-409.6h435.2v384c0 14.139-11.461 25.6-25.6 25.6z" fill="#ffffff" opacity="1" data-original="#000000" class=""></path><path d="M443.733 102.4H270.225a16.97 16.97 0 0 0-10.24 3.413l-22.741 17.067c-7.541 5.655-9.069 16.353-3.413 23.893a17.06 17.06 0 0 0 3.413 3.413l22.758 17.067a16.963 16.963 0 0 0 10.24 3.413h173.491c14.138 0 25.6-11.462 25.6-25.6V128c0-14.138-11.461-25.6-25.6-25.6zm8.534 42.667a8.533 8.533 0 0 1-8.533 8.533H270.217l-22.75-17.067 22.758-17.067h173.508a8.533 8.533 0 0 1 8.533 8.533v17.068zM443.733 204.8H270.225a16.97 16.97 0 0 0-10.24 3.413l-22.741 17.067c-7.541 5.655-9.069 16.353-3.413 23.893a17.06 17.06 0 0 0 3.413 3.413l22.758 17.067a16.963 16.963 0 0 0 10.24 3.413h173.491c14.138 0 25.6-11.462 25.6-25.6V230.4c0-14.138-11.461-25.6-25.6-25.6zm8.534 42.667a8.533 8.533 0 0 1-8.533 8.533H270.217l-22.75-17.067 22.758-17.067h173.508a8.533 8.533 0 0 1 8.533 8.533v17.068zM443.733 307.2H270.225a16.97 16.97 0 0 0-10.24 3.413l-22.741 17.067c-7.541 5.655-9.069 16.353-3.413 23.893a17.06 17.06 0 0 0 3.413 3.413l22.758 17.067a16.963 16.963 0 0 0 10.24 3.413h173.491c14.138 0 25.6-11.462 25.6-25.6V332.8c0-14.138-11.461-25.6-25.6-25.6zm8.534 42.667a8.533 8.533 0 0 1-8.533 8.533H270.217l-22.75-17.067 22.758-17.067h173.508a8.533 8.533 0 0 1 8.533 8.533v17.068zM443.733 409.6H270.225a16.97 16.97 0 0 0-10.24 3.413l-22.741 17.067c-7.541 5.655-9.069 16.353-3.413 23.893a17.06 17.06 0 0 0 3.413 3.413l22.758 17.067a16.963 16.963 0 0 0 10.24 3.413h173.491c14.138 0 25.6-11.462 25.6-25.6V435.2c0-14.138-11.461-25.6-25.6-25.6zm8.534 42.667a8.533 8.533 0 0 1-8.533 8.533H270.217l-22.75-17.067 22.758-17.067h173.508a8.533 8.533 0 0 1 8.533 8.533v17.068zM110.933 102.4c-18.851 0-34.133 15.282-34.133 34.133s15.282 34.133 34.133 34.133a33.694 33.694 0 0 0 17.229-4.838l2.338 2.338a8.533 8.533 0 0 0 12.066-12.066l-2.338-2.338a33.675 33.675 0 0 0 4.838-17.229c.001-18.851-15.281-34.133-34.133-34.133zm0 51.2c-9.426 0-17.067-7.641-17.067-17.067s7.641-17.067 17.067-17.067S128 127.108 128 136.533a16.719 16.719 0 0 1-.64 4.361l-1.86-1.86a8.533 8.533 0 0 0-12.066 12.066l1.86 1.86c-1.419.405-2.885.62-4.361.64zM110.933 204.8c-18.851 0-34.133 15.282-34.133 34.133s15.282 34.133 34.133 34.133a33.694 33.694 0 0 0 17.229-4.838l2.338 2.338a8.533 8.533 0 0 0 12.066-12.066l-2.338-2.338a33.675 33.675 0 0 0 4.838-17.229c.001-18.851-15.281-34.133-34.133-34.133zm0 51.2c-9.426 0-17.067-7.641-17.067-17.067s7.641-17.067 17.067-17.067S128 229.508 128 238.933a16.719 16.719 0 0 1-.64 4.361l-1.86-1.86a8.533 8.533 0 0 0-12.066 12.066l1.86 1.86c-1.419.405-2.885.62-4.361.64zM170.667 162.133a8.533 8.533 0 0 0 8.533 8.533h17.067a8.533 8.533 0 0 0 0-17.066v-42.667a8.533 8.533 0 0 0-14.566-6.034l-8.533 8.533a8.533 8.533 0 0 0 6.033 14.566v25.6a8.536 8.536 0 0 0-8.534 8.535zM187.733 204.8c-14.138 0-25.6 11.462-25.6 25.6a8.533 8.533 0 0 0 17.066 0 8.534 8.534 0 0 1 17.066 0c0 10.965-11.648 17.604-29.414 26.453a8.533 8.533 0 0 0 3.814 16.213H204.8c4.713 0 8.533-3.82 8.533-8.533S209.513 256 204.8 256h-3.772a33.075 33.075 0 0 0 12.305-25.6c0-14.138-11.461-25.6-25.6-25.6zM110.933 307.2c-18.851 0-34.133 15.282-34.133 34.133s15.282 34.133 34.133 34.133a33.694 33.694 0 0 0 17.229-4.838l2.338 2.338a8.534 8.534 0 0 0 12.066-12.066l-2.338-2.338a33.675 33.675 0 0 0 4.838-17.229c.001-18.851-15.281-34.133-34.133-34.133zm0 51.2c-9.426 0-17.067-7.641-17.067-17.067s7.641-17.067 17.067-17.067S128 331.908 128 341.333a16.719 16.719 0 0 1-.64 4.361l-1.86-1.86a8.533 8.533 0 0 0-12.066 12.066l1.86 1.86c-1.419.405-2.885.62-4.361.64zM183.467 358.4h-12.8a8.533 8.533 0 0 0 0 17.066h12.8c11.782 0 21.333-9.551 21.333-21.333 0-4.616-1.497-9.107-4.267-12.8 7.069-9.426 5.159-22.797-4.267-29.867a21.331 21.331 0 0 0-12.8-4.267h-12.8a8.533 8.533 0 0 0 0 17.066h12.8a4.267 4.267 0 0 1 0 8.534c-4.713 0-8.533 3.82-8.533 8.533s3.82 8.533 8.533 8.533a4.267 4.267 0 0 1 .001 8.535zM110.933 409.6c-18.851 0-34.133 15.282-34.133 34.133s15.282 34.133 34.133 34.133a33.694 33.694 0 0 0 17.229-4.838l2.338 2.338a8.533 8.533 0 0 0 12.066-12.066l-2.338-2.338a33.675 33.675 0 0 0 4.838-17.229c.001-18.851-15.281-34.133-34.133-34.133zm0 51.2c-9.426 0-17.067-7.641-17.067-17.067s7.641-17.067 17.067-17.067S128 434.308 128 443.733a16.719 16.719 0 0 1-.64 4.361l-1.86-1.86a8.534 8.534 0 0 0-12.066 12.066l1.86 1.86c-1.419.405-2.885.62-4.361.64zM204.8 443.733h-20.326l10.94-21.786a8.537 8.537 0 1 0-15.275-7.629l-17.067 34.133a8.533 8.533 0 0 0 7.595 12.348h8.533v8.533a8.533 8.533 0 0 0 17.066 0V460.8h8.533c4.713 0 8.533-3.82 8.533-8.533s-3.819-8.534-8.532-8.534zM51.2 34.133a8.534 8.534 0 0 1 0 17.067h-8.533a8.533 8.533 0 0 1 0-17.066H51.2zM93.867 34.133a8.534 8.534 0 0 1 0 17.067h-8.533a8.533 8.533 0 0 1 0-17.066h8.533zM136.533 34.133a8.533 8.533 0 0 1 0 17.066H128a8.533 8.533 0 0 1 0-17.066z" fill="#ffffff" opacity="1" data-original="#000000" class=""></path></g></svg>