<svg xmlns="http://www.w3.org/2000/svg" version="1.1" xmlns:xlink="http://www.w3.org/1999/xlink" width="512" height="512" x="0" y="0" viewBox="0 0 64 64" style="enable-background:new 0 0 512 512" xml:space="preserve" class=""><g><path fill="#b4dd7f" d="M62 2v13l-13 4-6-9 14-8z" opacity="1" data-original="#b4dd7f"></path><path fill="#ff826e" d="M15.75 7.83 16 8l-3 11-11-4V2h5z" opacity="1" data-original="#ff826e"></path><path fill="#f0d0b4" d="M26.38 20.62c.38.38.62.92.62 1.5 0 .56-.22 1.1-.62 1.5l-2.76 2.76a2.121 2.121 0 0 1-3-3l2.76-2.76c.4-.4.94-.62 1.5-.62.58 0 1.12.24 1.5.62zM43 10l6 9-5 3-.18.08c-.12-.26-.29-.5-.51-.7l-8.45-7.6c-.55-.5-1.27-.78-2.02-.78-.55 0-1.09.15-1.56.43l-3.72 2.24c-.37.21-.78.33-1.21.33-.65 0-1.24-.26-1.66-.69a2.31 2.31 0 0 1-.69-1.66v-.2c0-.89.5-1.7 1.3-2.1l5.58-2.79c.74-.37 1.55-.56 2.38-.56.49 0 .98.07 1.46.2L41 10z" opacity="1" data-original="#f0d0b4"></path><circle cx="32" cy="46" r="16" fill="#ffc729" opacity="1" data-original="#ffc729"></circle><path fill="#f0d0b4" d="M35.96 31c-.62 0-1.22-.22-1.7-.61l-1.51-1.27c.16-.31.25-.65.25-1 0-.58-.24-1.12-.62-1.5s-.92-.62-1.5-.62c-.56 0-1.1.22-1.5.62.4-.4.62-.94.62-1.5 0-.58-.24-1.12-.62-1.5s-.92-.62-1.5-.62c-.56 0-1.1.22-1.5.62.4-.4.62-.94.62-1.5 0-.58-.24-1.12-.62-1.5s-.92-.62-1.5-.62c-.56 0-1.1.22-1.5.62.4-.4.62-.94.62-1.5 0-.58-.24-1.12-.62-1.5s-.92-.62-1.5-.62c-.56 0-1.1.22-1.5.62l-2.76 2.76c-.29.29-.49.65-.57 1.05L13 19l3-11-.25-.17 7.04-1.56a11.216 11.216 0 0 1 5.89.27L33.26 8c-.83 0-1.64.19-2.38.56l-5.58 2.79c-.8.4-1.3 1.21-1.3 2.1v.2c0 .65.26 1.24.69 1.66.42.43 1.01.69 1.66.69.43 0 .84-.12 1.21-.33l3.72-2.24c.47-.28 1.01-.43 1.56-.43.75 0 1.47.28 2.02.78l8.45 7.6c.22.2.39.44.51.7s.18.55.18.84c0 1.15-.93 2.08-2.08 2.08h-.17c-.48 0-.95-.17-1.33-.48l-.16-.13a2.032 2.032 0 0 1 .14 3.01c-.36.37-.88.6-1.44.6h-.22c-.48 0-.94-.17-1.31-.47l-.17-.14a2.032 2.032 0 0 1 .14 3.01c-.15.15-.32.28-.51.37-.28.15-.6.23-.93.23z" opacity="1" data-original="#f0d0b4"></path><path fill="#f0d0b4" d="M32.75 29.12c-.1.18-.22.35-.37.5l-2.5 2.5-.26.26a2.12 2.12 0 0 1-3.6-1.23c-.01-.09-.02-.18-.02-.27 0-.56.22-1.1.62-1.5l2.76-2.76c.4-.4.94-.62 1.5-.62.58 0 1.12.24 1.5.62s.62.92.62 1.5c0 .35-.09.69-.25 1zM23.38 17.62c.38.38.62.92.62 1.5 0 .56-.22 1.1-.62 1.5l-2.76 2.76a2.121 2.121 0 0 1-3-3l2.76-2.76c.4-.4.94-.62 1.5-.62.58 0 1.12.24 1.5.62z" opacity="1" data-original="#f0d0b4"></path><path fill="#f0d0b4" d="M29.38 23.62c.38.38.62.92.62 1.5 0 .56-.22 1.1-.62 1.5l-2.76 2.76a2.121 2.121 0 0 1-3-3l2.76-2.76c.4-.4.94-.62 1.5-.62.58 0 1.12.24 1.5.62zM34.26 30.39a2.032 2.032 0 0 1 .14 3.01c-.36.37-.88.6-1.44.6h-.19c-.5 0-.98-.18-1.35-.51l-1.54-1.37 2.5-2.5c.15-.15.27-.32.37-.5z" opacity="1" data-original="#f0d0b4"></path><circle cx="32" cy="46" r="12" fill="#fcd770" opacity="1" data-original="#fcd770"></circle><path d="m56.734 1-14 8H41.14l-6.149-1.757a6.249 6.249 0 0 0-1.485-.213l-4.524-1.447a12.337 12.337 0 0 0-6.408-.291L15.95 6.765 7.303 1H1v14.7l11.568 4.207 3.442 2.065a3.113 3.113 0 0 0 3.002 3.017 3.113 3.113 0 0 0 3 3 3.11 3.11 0 0 0 2.253 2.876A16.906 16.906 0 0 0 15 46c0 9.374 7.626 17 17 17s17-7.626 17-17c0-6.932-4.097-13.005-10.357-15.644.215-.41.347-.868.353-1.36a3.042 3.042 0 0 0 3-3.003A3.077 3.077 0 0 0 45 22.924c0-.114-.023-.224-.036-.337l4.447-2.668L63 15.739V1zM3 14.3V3h3.697l8.148 5.432-2.525 9.257zm15 7.579c0-.3.117-.581.328-.793l2.758-2.758a1.122 1.122 0 0 1 1.586 1.586l-2.758 2.758A1.122 1.122 0 0 1 18 21.879zm3 3c0-.3.117-.581.328-.793l2.758-2.758a1.122 1.122 0 0 1 1.586 1.586l-2.758 2.758A1.122 1.122 0 0 1 21 24.879zm3.328 2.207 2.758-2.758a1.122 1.122 0 0 1 1.586 1.586l-2.758 2.758a1.122 1.122 0 0 1-1.586-1.586zM30.879 27a1.122 1.122 0 0 1 .793 1.914l-2.758 2.758a1.122 1.122 0 0 1-1.586-1.586l2.758-2.758c.212-.211.493-.328.793-.328zm2.001 3.535.745.621A1.044 1.044 0 0 1 32.957 33h-.185c-.254 0-.499-.093-.69-.261l-.748-.66zM32 35c6.065 0 11 4.935 11 11s-4.935 11-11 11-11-4.935-11-11 4.935-11 11-11zm15 11c0 8.271-6.729 15-15 15s-15-6.729-15-15c0-5.818 3.29-11.007 8.465-13.504a3.117 3.117 0 0 0 1.859 1.388C22.462 35.767 19 40.481 19 46c0 7.168 5.832 13 13 13s13-5.832 13-13c0-5.933-3.999-10.939-9.439-12.492.266-.445.428-.958.435-1.512.319-.004.622-.067.911-.163C42.964 33.922 47 39.537 47 46zm-5.076-22h-.173c-.251 0-.496-.088-.688-.249l-.158-.132-5.265-4.387-1.28 1.536 5.265 4.387A1.044 1.044 0 0 1 38.957 27h-.217c-.244 0-.481-.086-.668-.242l-.167-.139-5.265-4.387-1.28 1.536 5.265 4.387A1.043 1.043 0 0 1 35.957 30c-.384 0-.757-.135-1.052-.381l-.984-.82c.048-.221.079-.446.079-.678a3.118 3.118 0 0 0-3.011-3.11 3.113 3.113 0 0 0-3-3 3.113 3.113 0 0 0-3-3A3.119 3.119 0 0 0 21.879 16c-.834 0-1.618.325-2.207.914l-2.758 2.758c-.106.106-.193.224-.281.342l-2.469-1.481 2.706-9.924 6.137-1.364a10.34 10.34 0 0 1 5.365.244l1.472.471-4.993 2.496A3.33 3.33 0 0 0 23 13.452v.199a3.352 3.352 0 0 0 5.073 2.871l3.723-2.234a2.067 2.067 0 0 1 2.398.231l8.45 7.605a1.076 1.076 0 0 1-.72 1.876zm2.058-3.361-8.45-7.605c-1.283-1.155-3.286-1.348-4.766-.46l-3.723 2.234A1.35 1.35 0 0 1 25 13.651v-.199c0-.515.286-.977.746-1.207l5.579-2.789a4.365 4.365 0 0 1 3.117-.29l6.284 1.795 1.734.029 5.127 7.691-3.484 2.09c-.043-.041-.076-.092-.121-.132zM61 14.261l-11.582 3.564-4.992-7.488L57.266 3H61z" fill="#000000" opacity="1" data-original="#000000" class=""></path><path d="M31 53v2h2v-2c2.206 0 4-1.794 4-4s-1.794-4-4-4h-2c-1.103 0-2-.897-2-2s.897-2 2-2h2c1.103 0 2 .897 2 2h2c0-2.206-1.794-4-4-4v-2h-2v2c-2.206 0-4 1.794-4 4s1.794 4 4 4h2c1.103 0 2 .897 2 2s-.897 2-2 2h-2c-1.103 0-2-.897-2-2v-1h-2v1c0 2.205 1.794 4 4 4zM48.2 37.4l1.6 1.2L54 33v21h2V33l4.2 5.6 1.6-1.2-6.8-9.067zM54 56h2v2h-2zM15.8 37.4 9 28.333 2.2 37.4l1.6 1.2L8 33v21h2V33l4.2 5.6zM8 56h2v2H8z" fill="#000000" opacity="1" data-original="#000000" class=""></path></g></svg>