<svg xmlns="http://www.w3.org/2000/svg" version="1.1" xmlns:xlink="http://www.w3.org/1999/xlink" width="512" height="512" x="0" y="0" viewBox="0 0 60 60" style="enable-background:new 0 0 512 512" xml:space="preserve" class=""><g><path fill="#f0f1f2" d="M2 14v32a2.006 2.006 0 0 0 2 2h40V14z" opacity="1" data-original="#f0f1f2" class=""></path><path fill="#d84459" d="M11 1h24a2 2 0 0 1 2 2v4H9V3a2 2 0 0 1 2-2z" opacity="1" data-original="#d84459" class=""></path><path fill="#262472" d="m53.43 45.52.41.15A7.792 7.792 0 0 1 59 53v4a2.006 2.006 0 0 1-2 2H33a2.006 2.006 0 0 1-2-2v-4a7.792 7.792 0 0 1 5.16-7.33l.41-.15z" opacity="1" data-original="#262472"></path><path fill="#d5d8db" d="M51.74 59H38.26c-1.97-4.54-1.98-9.97-1.69-13.48l1.16-.41h14.54l1.16.41c.29 3.51.28 8.94-1.69 13.48z" opacity="1" data-original="#d5d8db"></path><path fill="#f0f1f2" d="m52.27 45.11-3.62 4.84a.886.886 0 0 1-1.25.18l-.32-.24L45 48.33l-2.08 1.56-.32.24a.886.886 0 0 1-1.25-.18l-3.62-4.84 3.38-1.2h7.78z" opacity="1" data-original="#f0f1f2" class=""></path><path fill="#d84459" d="m48 59-1.44-6.78L45 51l-1.56 1.22L42 59zM44.78 10a.932.932 0 0 0-.34-.28L37 6H9L1.56 9.72a.932.932 0 0 0-.34.28.977.977 0 0 0-.22.62v2.88A1.5 1.5 0 0 0 2.5 15H9l1-1h7l1 1h10l1-1h7l1 1h6.5a1.5 1.5 0 0 0 1.5-1.5v-2.88a.977.977 0 0 0-.22-.62z" opacity="1" data-original="#d84459" class=""></path><path fill="#ffffff" d="M18.06 10a.96.96 0 0 0-.06.33V15H9v-4.46a1.006 1.006 0 0 1 .16-.54zM37 10.54V15h-9v-4.67a.96.96 0 0 0-.06-.33h8.9a1.006 1.006 0 0 1 .16.54z" opacity="1" data-original="#ffffff"></path><path fill="#c13a54" d="M44.78 10h-7.94a.922.922 0 0 0-.29-.3L31 6h6l7.44 3.72a.932.932 0 0 1 .34.28z" opacity="1" data-original="#c13a54"></path><path fill="#f0f1f2" d="M36.84 10h-8.9a.867.867 0 0 0-.14-.27L25 6h6l5.55 3.7a.922.922 0 0 1 .29.3z" opacity="1" data-original="#f0f1f2" class=""></path><path fill="#c13a54" d="M27.94 10h-9.88a.867.867 0 0 1 .14-.27L21 6h4l2.8 3.73a.867.867 0 0 1 .14.27z" opacity="1" data-original="#c13a54"></path><path fill="#f0f1f2" d="m21 6-2.8 3.73a.867.867 0 0 0-.14.27h-8.9a.922.922 0 0 1 .29-.3L15 6z" opacity="1" data-original="#f0f1f2" class=""></path><path fill="#c13a54" d="M15 6 9.45 9.7a.922.922 0 0 0-.29.3H1.22a.932.932 0 0 1 .34-.28L9 6z" opacity="1" data-original="#c13a54"></path><path fill="#8f5c4a" d="M6 48V22a1 1 0 0 1 1-1h10a1 1 0 0 1 1 1v26z" opacity="1" data-original="#8f5c4a" class=""></path><path fill="#4848c1" d="M37 21H23a1 1 0 0 0-1 1v14a1 1 0 0 0 1 1h14z" opacity="1" data-original="#4848c1" class=""></path><path fill="#242435" d="M57 31v-5a12 12 0 0 0-12-12 12 12 0 0 0-12 12v5z" opacity="1" data-original="#242435" class=""></path><path fill="#d7aa91" d="M49 41v3l-4 4-4-4v-3z" opacity="1" data-original="#d7aa91"></path><path fill="#e7bda0" d="M35.4 28.6a2.4 2.4 0 0 0 0 4.8l.424 2.536a6 6 0 0 0 2.556 3.989C40 41.02 42.382 43 45 43s5-1.98 6.62-3.075a6 6 0 0 0 2.556-3.989L54.6 33.4a2.4 2.4 0 0 0 0-4.8 2.989 2.989 0 0 0-2.255-3.125 17.389 17.389 0 0 1-6.654-2.275 1.276 1.276 0 0 0-1.382 0 17.389 17.389 0 0 1-6.654 2.272A2.989 2.989 0 0 0 35.4 28.6z" opacity="1" data-original="#e7bda0" class=""></path><path fill="#c13a54" d="m42.923 49.889.521 2.333h3.112l.521-2.333L45 48z" opacity="1" data-original="#c13a54"></path><path fill="#917263" d="M45 39a5.674 5.674 0 0 1-2.463-.547 1 1 0 1 1 .926-1.773 3.848 3.848 0 0 0 3.082 0 1 1 0 0 1 .918 1.777A5.674 5.674 0 0 1 45 39z" opacity="1" data-original="#917263"></path></g></svg>