<svg xmlns="http://www.w3.org/2000/svg" version="1.1" xmlns:xlink="http://www.w3.org/1999/xlink" width="20px" height="20px" x="0" y="0" viewBox="0 0 24 24" style="enable-background:new 0 0 512 512" xml:space="preserve" class=""><g><path d="m24 8-2.246-8H2.246L0 8c0 1.012.378 1.937 1 2.643V21c0 1.654 1.346 3 3 3h8c1.654 0 3-1.346 3-3v-9.537a4.036 4.036 0 0 0 1-.82A3.989 3.989 0 0 0 19 12h1c.345 0 .68-.044 1-.127V24h2V10.643c.622-.705 1-1.631 1-2.643ZM12 22H4c-.551 0-1-.449-1-1v-3h10v3c0 .551-.449 1-1 1Zm1-6H3v-4.127c.32.083.655.127 1 .127h1a3.994 3.994 0 0 0 3-1.357A3.99 3.99 0 0 0 11 12h2v4Zm6-6c-1.103 0-2-.897-2-2h-2c0 1.103-.897 2-2 2h-2c-1.103 0-2-.897-2-2H7c0 1.103-.897 2-2 2H4a2.002 2.002 0 0 1-1.996-1.874L3.754 2H7v3h2V2h6v3h2V2h3.246l1.75 6.126A2.003 2.003 0 0 1 20 10h-1Z" fill="#ffffff" opacity="1" data-original="#000000" class=""></path></g></svg>