<svg xmlns="http://www.w3.org/2000/svg" version="1.1" xmlns:xlink="http://www.w3.org/1999/xlink" width="512" height="512" x="0" y="0" viewBox="0 0 61 60" style="enable-background:new 0 0 512 512" xml:space="preserve" class=""><g><g fill="none"><g transform="translate(1 1)"><path fill="#3f51b5" d="m14 50-5.7 7.6a1 1 0 0 1-.8.4H4a1 1 0 0 1-.8-1.6L8 50z" opacity="1" data-original="#3f51b5"></path><path fill="#283593" d="M37 34H1L2.82 7.79A3 3 0 0 1 5.83 5h26.34c.205 0 .41.02.61.06a15 15 0 0 0 3.81 23z" opacity="1" data-original="#283593"></path><path fill="#3f51b5" d="M34 34H1L2.82 7.79A3 3 0 0 1 5.83 5h23.34a3 3 0 0 1 2.55 1.4 15 15 0 0 0 1.7 19.23z" opacity="1" data-original="#3f51b5"></path><path fill="#0377bc" d="M37 34v13a3 3 0 0 1-3 3H4a3 3 0 0 1-3-3V34z" opacity="1" data-original="#0377bc"></path><path fill="#02a9f4" d="M34 34v13a2.88 2.88 0 0 1-2.75 3H3.75A2.88 2.88 0 0 1 1 47V34z" opacity="1" data-original="#02a9f4" class=""></path><path fill="#fec108" d="M28 2v3H10V2a2 2 0 0 1 2-2h14a2 2 0 0 1 2 2z" opacity="1" data-original="#fec108"></path><path fill="#ffdc00" d="M25 2v3H10V2a1.86 1.86 0 0 1 1.67-2h11.66A1.86 1.86 0 0 1 25 2z" opacity="1" data-original="#ffdc00"></path><path fill="#3f51b5" d="M34 58h-3.5a1 1 0 0 1-.8-.4L24 50h6l4.8 6.4A1 1 0 0 1 34 58z" opacity="1" data-original="#3f51b5"></path><path fill="#02a9f4" d="M17 11v17a2 2 0 0 1-2 2H7.43a2 2 0 0 1-2-2.14l1.17-17A2 2 0 0 1 8.6 9H15a2 2 0 0 1 2 2z" opacity="1" data-original="#02a9f4" class=""></path><circle cx="8" cy="42" r="3" fill="#ffdc00" opacity="1" data-original="#ffdc00"></circle><path fill="#02a9f4" d="M32.56 27.86a2 2 0 0 1-2 2.14H23a2 2 0 0 1-2-2V11a2 2 0 0 1 2-2h6.39a2.1 2.1 0 0 1 .79.16 15 15 0 0 0 2.14 15.24z" opacity="1" data-original="#02a9f4" class=""></path><circle cx="30" cy="42" r="3" fill="#ffdc00" opacity="1" data-original="#ffdc00"></circle><rect width="8" height="4" x="15" y="40" fill="#f5f5f5" rx="1" opacity="1" data-original="#f5f5f5"></rect><path fill="#cfd8dc" d="M59 15c0 8.284-6.716 15-15 15s-15-6.716-15-15c0-8.284 6.716-15 15-15s15 6.716 15 15z" opacity="1" data-original="#cfd8dc"></path><path fill="#f5f5f5" d="M56 15c0 7.691-5.819 14.135-13.47 14.92h-.06c-7.644-.793-13.453-7.235-13.453-14.92S34.826.873 42.47.08h.06C50.181.865 56 7.309 56 15z" opacity="1" data-original="#f5f5f5"></path><circle cx="44" cy="15" r="2" fill="#3f51b5" opacity="1" data-original="#3f51b5"></circle></g><g fill="#000"><path d="M16 9H9.61a3 3 0 0 0-3 2.79l-1.17 17a3 3 0 0 0 3 3.21H16a3 3 0 0 0 3-3V12a3 3 0 0 0-3-3zm1 20a1 1 0 0 1-1 1H8.43a1 1 0 0 1-1-1.07l1.17-17a1 1 0 0 1 1-.93H16a1 1 0 0 1 1 1zM9 47a4 4 0 1 0 0-8 4 4 0 0 0 0 8zm0-6a2 2 0 1 1 0 4 2 2 0 0 1 0-4zM31 47a4 4 0 1 0 0-8 4 4 0 0 0 0 8zm0-6a2 2 0 1 1 0 4 2 2 0 0 1 0-4zM17 46h6a2 2 0 0 0 2-2v-2a2 2 0 0 0-2-2h-6a2 2 0 0 0-2 2v2a2 2 0 0 0 2 2zm0-4h6v2h-6z" fill="#000000" opacity="1" data-original="#000000" class=""></path><path d="M58.86 8A16 16 0 0 0 37 2.14l-.08.07A16.29 16.29 0 0 0 33.39 5 26.53 26.53 0 0 0 30 5V3a3 3 0 0 0-3-3H13a3 3 0 0 0-3 3v2H6.83a4 4 0 0 0-4 3.72C.59 40.63 1 29.75 1 48a4 4 0 0 0 4 4h2l-3.6 4.8A2 2 0 0 0 5 60h3.5a2 2 0 0 0 1.6-.8l1.65-2.2h16.5l1.65 2.2a2 2 0 0 0 1.6.8H35a2 2 0 0 0 1.6-3.2L33 52h2a4 4 0 0 0 4-4c0-15.67.09-11.69-.29-17.29A16 16 0 0 0 58.86 8zm-26.3 20.93a1 1 0 0 1-1 1.07H24a1 1 0 0 1-1-1V12a1 1 0 0 1 1-1h5.81a16 16 0 0 0 1.33 13c.03.045.064.089.1.13.337.56.704 1.1 1.1 1.62zM12 3a1 1 0 0 1 1-1h14a1 1 0 0 1 1 1v2H12zM4.82 8.86A2 2 0 0 1 6.83 7h25c-.2.3-.38.61-.57.92l-.12.08v.08c-.18.31-.34.62-.5.94h-6.62a3 3 0 0 0-3 3V29a3 3 0 0 0 3 3h7.57a3 3 0 0 0 3-3.21l-.05-.74a16.3 16.3 0 0 0 2.12 1.56l.3 4.39H3.07zM8.5 58H5l4.5-6H13zm4.75-3 2.25-3h9l2.25 3zM35 58h-3.5L27 52h3.5zm2-10a2 2 0 0 1-2 2H5a2 2 0 0 1-2-2V36h34zm15.85-20.41-.48-.83a1.003 1.003 0 0 0-1.74 1l.48.82A14 14 0 0 1 46 30v-1a1 1 0 0 0-2 0v1a14 14 0 0 1-5.11-1.37l.48-.82a1.003 1.003 0 0 0-1.74-1l-.48.83c-1.47-1-2.74-2.27-3.74-3.74l.83-.48a1.003 1.003 0 0 0-1-1.74l-.82.48A14 14 0 0 1 31.05 17H32a1 1 0 0 0 0-2h-.95a14 14 0 0 1 1.37-5.11l.82.48a1.003 1.003 0 0 0 1-1.74l-.83-.48c1-1.47 2.27-2.74 3.74-3.74l.48.83a1.003 1.003 0 0 0 1.74-1l-.48-.82A14 14 0 0 1 44 2.05V3a1 1 0 0 0 2 0V2a14 14 0 0 1 5.11 1.37l-.48.82a1.003 1.003 0 0 0 1.74 1l.48-.83c1.47 1 2.74 2.27 3.74 3.74l-.83.48a1.003 1.003 0 1 0 1 1.74l.82-.48A14 14 0 0 1 59 15h-1a1 1 0 0 0 0 2h1a14 14 0 0 1-1.37 5.11l-.82-.48a1.003 1.003 0 0 0-1 1.74l.83.48a14.15 14.15 0 0 1-3.79 3.74z" fill="#000000" opacity="1" data-original="#000000" class=""></path><path d="M47.7 17.29a3 3 0 0 0-1.7-4.11V6a1 1 0 0 0-2 0v7.18a3 3 0 1 0 2.29 5.52l4 4a1.004 1.004 0 1 0 1.42-1.42zM44 16a1 1 0 1 1 2-.008A1 1 0 0 1 44 16z" fill="#000000" opacity="1" data-original="#000000" class=""></path></g></g></g></svg>