<svg xmlns="http://www.w3.org/2000/svg" version="1.1" xmlns:xlink="http://www.w3.org/1999/xlink" width="512" height="512" x="0" y="0" viewBox="0 0 512 512" style="enable-background:new 0 0 512 512" xml:space="preserve" class=""><g><path d="m498.775 330.535-26.757-22.644-28.578-66.068a26.02 26.02 0 0 0-23.87-15.673H316.52v-18.32c0-7.091-5.769-12.86-12.86-12.86h-26.441V72.168c0-6.893-5.607-12.5-12.5-12.5h-53.283V46.74a7.5 7.5 0 0 0-15 0v12.928h-76.347V46.74a7.5 7.5 0 0 0-15 0v12.928H51.806c-6.893 0-12.5 5.607-12.5 12.5v55.854a7.5 7.5 0 0 0 15 0v-13.754h207.913v151.194H54.306v-102.44a7.5 7.5 0 0 0-15 0v31.949H12.87C5.773 194.97 0 200.739 0 207.83v214.49c0 10.052 8.183 18.23 18.24 18.23h45.197c9.27 19.049 28.822 32.21 51.393 32.21 22.57 0 42.121-13.161 51.392-32.21h65.758a7.5 7.5 0 0 0 0-15h-60.909a56.76 56.76 0 0 0-4.514-34.1H301.52v34.1h-34.81a7.5 7.5 0 0 0 0 15h92.089c9.27 19.049 28.822 32.21 51.393 32.21 22.57 0 42.121-13.161 51.392-32.21h37.546c7.097 0 12.87-5.769 12.87-12.86v-68.65a37.248 37.248 0 0 0-13.225-28.505zm-44.359-25.554h-44.281V274.34h31.027zM54.306 99.268v-24.6h50.783v7.047a7.5 7.5 0 0 0 15 0v-7.047h76.347v7.047a7.5 7.5 0 0 0 15 0v-7.047h50.783v24.6zM18.24 425.55a3.238 3.238 0 0 1-3.24-3.23v-30.87h48.102a56.76 56.76 0 0 0-4.514 34.1zm96.59 32.21c-18.111 0-33.283-11.606-39.525-27.563l-.035-.089c-1.771-4.47-2.56-9.387-2.56-14.467 0-10.137 3.47-19.559 9.59-26.725.085-.1.174-.197.255-.299 7.733-9.219 19.328-15.095 32.275-15.095 12.951 0 24.55 5.88 32.282 15.105.077.096.159.186.239.279 6.117 7.174 9.597 16.593 9.597 26.735.001 23.32-18.999 42.119-42.118 42.119zm41.495-81.31c-10.42-11.027-25.162-17.928-41.495-17.928s-31.076 6.901-41.496 17.928H15V209.97h24.306v57.992c0 6.893 5.607 12.5 12.5 12.5h212.913c6.893 0 12.5-5.607 12.5-12.5V209.97h24.301v166.48zm253.867 81.31c-23.225 0-42.12-18.895-42.12-42.119s18.895-42.119 42.12-42.119c23.224 0 42.119 18.895 42.119 42.119 0 23.264-18.946 42.119-42.119 42.119zM497 425.55h-30.567c.566-3.221.878-6.528.878-9.909 0-31.496-25.624-57.119-57.119-57.119-31.496 0-57.12 25.624-57.12 57.119 0 3.381.312 6.688.878 9.909h-37.43v-184.4h103.05a11.02 11.02 0 0 1 10.106 6.638l4.997 11.552h-26.671c-7.095 0-12.868 5.772-12.868 12.868v34.907c0 7.095 5.772 12.867 12.868 12.867h55.082l26.005 22.007A22.282 22.282 0 0 1 497 359.041z" fill="#ffffff" opacity="1" data-original="#000000" class=""></path><path d="M367.207 259.34h-21.752c-7.096 0-12.868 5.772-12.868 12.868v34.907c0 7.095 5.772 12.868 12.868 12.868h21.752c7.095 0 12.868-5.772 12.868-12.868v-34.907c-.001-7.096-5.773-12.868-12.868-12.868zm-2.133 45.642h-17.488V274.34h17.488zM410.192 390.729c-13.737 0-24.912 11.175-24.912 24.912s11.175 24.912 24.912 24.912 24.912-11.175 24.912-24.912-11.175-24.912-24.912-24.912zm0 34.824c-5.465 0-9.912-4.447-9.912-9.912s4.447-9.912 9.912-9.912 9.912 4.447 9.912 9.912-4.447 9.912-9.912 9.912zM114.83 390.729c-13.737 0-24.913 11.175-24.913 24.912s11.176 24.912 24.913 24.912 24.912-11.175 24.912-24.912-11.176-24.912-24.912-24.912zm0 34.824c-5.466 0-9.913-4.447-9.913-9.912s4.447-9.912 9.913-9.912c5.465 0 9.912 4.447 9.912 9.912s-4.447 9.912-9.912 9.912zM86.694 183.495h22c6.893 0 12.5-5.607 12.5-12.5v-22c0-6.893-5.607-12.5-12.5-12.5h-22c-6.893 0-12.5 5.607-12.5 12.5v22c0 6.892 5.607 12.5 12.5 12.5zm2.5-32h17v17h-17zM147.262 183.495h22c6.893 0 12.5-5.607 12.5-12.5v-22c0-6.893-5.607-12.5-12.5-12.5h-22c-6.893 0-12.5 5.607-12.5 12.5v22c0 6.892 5.608 12.5 12.5 12.5zm2.5-32h17v17h-17zM207.831 183.495h22c6.893 0 12.5-5.607 12.5-12.5v-22c0-6.893-5.607-12.5-12.5-12.5h-22c-6.893 0-12.5 5.607-12.5 12.5v22c0 6.892 5.607 12.5 12.5 12.5zm2.5-32h17v17h-17zM74.194 230.735c0 6.893 5.607 12.5 12.5 12.5h22c6.893 0 12.5-5.607 12.5-12.5v-22c0-6.893-5.607-12.5-12.5-12.5h-22c-6.893 0-12.5 5.607-12.5 12.5zm15-19.5h17v17h-17zM134.762 230.735c0 6.893 5.607 12.5 12.5 12.5h22c6.893 0 12.5-5.607 12.5-12.5v-22c0-6.893-5.607-12.5-12.5-12.5h-22c-6.893 0-12.5 5.607-12.5 12.5zm15-19.5h17v17h-17zM195.331 230.735c0 6.893 5.607 12.5 12.5 12.5h22c6.893 0 12.5-5.607 12.5-12.5v-22c0-6.893-5.607-12.5-12.5-12.5h-22c-6.893 0-12.5 5.607-12.5 12.5zm15-19.5h17v17h-17z" fill="#ffffff" opacity="1" data-original="#000000" class=""></path></g></svg>